<svg width="14" height="20" viewBox="0 0 14 20" fill="none" xmlns="http://www.w3.org/2000/svg">
<path d="M6.8299 0.615234C3.23623 0.615234 0.312492 3.53897 0.312492 7.13264C0.312492 11.6495 6.83631 19.3652 6.83631 19.3652C6.83631 19.3652 13.3473 11.4274 13.3473 7.13264C13.3473 3.53897 10.4237 0.615234 6.8299 0.615234ZM8.79634 9.04095C8.25412 9.58305 7.54207 9.85416 6.8299 9.85416C6.11785 9.85416 5.40557 9.58305 4.86358 9.04095C3.77925 7.95673 3.77925 6.19251 4.86358 5.10818C5.38863 4.5829 6.08707 4.29359 6.8299 4.29359C7.57274 4.29359 8.27106 4.58302 8.79634 5.10818C9.88067 6.19251 9.88067 7.95673 8.79634 9.04095Z" fill="#B0292E"/>
</svg>
